<?xml version="1.0" standalone="no"?><!-- Generator: Gravit.io --><svg xmlns="http://www.w3.org/2000/svg" xmlns:xlink="http://www.w3.org/1999/xlink" style="isolation:isolate" viewBox="0 0 640 640" width="640" height="640"><defs><clipPath id="_clipPath_kRPQvMrawyu5gISTpwViA1PC24hgT28e"><rect width="640" height="640"/></clipPath></defs><g clip-path="url(#_clipPath_kRPQvMrawyu5gISTpwViA1PC24hgT28e)"><g id="Group"><g id="Group"><g id="Group"><path d=" M 524.49 141.698 L 547.139 123.667 C 560.826 113.475 569.378 107.101 572.795 104.556 C 576.017 102.153 579.424 99.994 582.974 98.111 C 586.227 96.37 594.359 92.032 607.382 85.078 C 624.128 77.299 634.593 72.443 638.777 70.498 C 639.513 70.152 639.984 69.419 639.984 68.614 C 639.984 60.51 639.984 37.163 639.984 28.977 C 639.984 28.57 639.565 28.295 639.196 28.468 C 636.373 29.771 629.335 33.009 618.062 38.202 L 587.035 55.867 L 555.435 76.067 L 524.858 98.498 C 503.151 115.98 489.586 126.915 484.154 131.283 C 483.745 131.619 483.131 131.435 482.947 130.947 C 482.088 128.483 479.919 122.333 476.451 112.487 C 471.899 103.527 469.055 97.927 467.92 95.687 C 463.48 86.941 458.375 78.562 452.657 70.6 C 452.636 70.569 452.585 70.498 452.503 70.396 L 443.542 58.188 L 437.599 51.346 L 430.315 43.293 L 417.558 29.171 L 408.188 20.2 L 398.633 11.322 C 392.485 5.61 388.649 2.036 387.115 0.611 C 386.695 0.214 386.133 0 385.56 0 C 366.44 0 309.757 0 290.587 0 C 290.188 0 289.789 0.071 289.421 0.193 C 288.919 0.367 289.073 0.316 288.837 0.397 C 287.671 0.804 286.812 1.823 286.628 3.044 C 285.963 7.494 284.285 18.612 281.595 36.4 C 280.725 56.498 280.183 69.052 279.968 74.082 C 279.948 74.53 279.498 74.846 279.068 74.703 C 274.915 73.349 264.552 69.948 247.97 64.521 C 228.134 59.563 215.736 56.457 210.784 55.215 C 210.784 55.215 207.337 54.594 207.337 54.594 C 200.422 53.841 181.118 51.733 174.131 50.969 C 173.231 50.868 172.321 50.847 171.42 50.888 C 156.526 51.58 145.406 52.161 138.082 52.629 C 130.45 53.108 127.146 54.788 128.169 57.679 C 131.269 64.827 133.212 69.307 133.99 71.088 C 134.174 71.516 134.266 71.974 134.266 72.443 C 134.266 75.477 134.266 83.337 134.266 86.239 C 134.266 87.135 134.511 88.01 134.962 88.784 C 138.337 94.466 148.117 110.96 151.585 116.794 C 151.677 116.967 151.554 117.181 151.36 117.181 C 146.04 117.181 150.726 117.181 150.46 117.181 C 133.345 117.181 116.272 118.8 99.474 122.017 C 99.076 122.099 98.093 122.282 96.518 122.587 L 70.586 127.638 L 60.295 130.142 L 46.587 134.337 C 38.382 137.035 33.268 138.715 31.211 139.397 C 22.915 142.126 14.926 145.72 7.376 150.108 C 5.678 151.096 4.634 151.707 1.115 153.754 C -0.061 154.436 -0.378 155.994 0.44 157.083 C 1.975 159.109 5.801 164.159 11.928 172.243 C 15.458 176.031 17.657 178.393 18.537 179.34 C 24.501 185.734 30.966 191.64 37.871 197.015 C 44.408 202.106 61.307 215.261 69.757 221.838 C 70.197 222.174 70.217 222.816 69.818 223.182 C 68.294 224.577 64.479 228.07 58.382 233.659 C 57.123 234.952 56.336 235.757 56.018 236.083 C 51.528 240.685 47.845 246.01 45.124 251.823 C 44.817 252.485 45.912 250.154 45.073 251.935 C 44.08 254.063 43.303 256.283 42.751 258.564 C 42.372 260.152 41.84 262.372 41.4 264.174 C 41.073 265.528 41.717 266.923 42.955 267.564 C 47.865 270.079 53.543 273.001 56.724 274.63 C 63.906 278.316 71.506 281.137 79.363 283.02 C 81.194 283.458 85.767 284.558 93.081 286.309 L 120.159 290.636 L 148.761 292.082 C 167.492 292.082 179.195 292.082 183.88 292.082 C 184.412 292.082 184.555 292.795 184.075 293.008 C 180.842 294.424 172.75 297.957 159.82 303.618 L 138.082 316.243 L 116.343 329.581 L 89.654 347.613 C 84.6 351.533 81.45 353.976 80.181 354.954 C 71.005 362.071 62.34 369.839 54.269 378.188 C 51.814 380.724 48.264 384.399 43.733 389.083 C 42.618 390.243 41.983 391.791 41.983 393.4 C 41.983 394.123 41.983 394.011 41.983 394.795 C 41.983 396.21 42.587 397.564 43.64 398.521 C 46.975 401.535 47.927 402.4 49.41 403.744 C 56.643 410.311 64.489 416.186 72.816 421.308 C 75.056 422.682 80.672 426.124 89.654 431.642 C 99.761 437.486 106.073 441.131 108.599 442.587 C 109.408 443.056 109.52 444.176 108.824 444.797 C 106.666 446.711 107.72 445.784 107.085 446.344 C 101.07 451.68 95.516 457.514 90.493 463.796 C 88.508 466.29 83.516 472.522 75.547 482.489 C 69.818 490.034 66.228 494.748 64.796 496.632 C 57.85 505.785 52.008 515.722 47.395 526.24 C 44.561 532.716 46.392 528.521 44.408 533.052 C 36.971 550.014 31.539 567.781 28.224 585.986 C 28.081 586.78 28.991 581.761 27.938 587.554 C 27.641 589.153 27.58 590.772 27.743 592.38 C 27.928 594.132 28.286 597.665 28.48 599.589 C 28.582 600.526 29.227 601.32 30.127 601.605 C 30.751 601.798 31.242 601.951 31.897 602.165 C 32.766 602.44 33.687 602.562 34.608 602.521 C 41.185 602.246 59.405 601.473 65.952 601.198 C 67.005 601.157 68.038 600.963 69.041 600.627 C 76.059 598.275 84.457 595.465 88.692 594.05 C 98.963 590.609 108.804 586.017 118.021 580.366 C 118.921 579.816 121.151 578.442 124.732 576.252 C 132.414 571.538 137.212 568.586 139.135 567.415 C 150.664 560.339 161.569 552.315 171.758 543.427 C 174.643 540.902 179.809 536.391 185.64 531.3 C 185.906 531.066 186.315 531.188 186.417 531.514 C 188.432 537.868 190.765 545.198 191.9 548.793 C 194.959 558.435 198.734 567.832 203.194 576.914 C 203.982 578.503 205.946 582.494 209.076 588.878 C 214.948 597.787 218.62 603.366 220.083 605.596 C 221.065 607.083 222.743 607.989 224.543 607.989 C 224.881 607.989 223.838 607.989 224.38 607.989 C 225.577 607.989 226.743 607.571 227.664 606.808 C 231.725 603.438 235.766 600.088 238.139 598.113 C 244.686 592.686 250.701 586.668 256.112 580.132 C 257.974 577.882 262.639 572.261 270.086 563.271 L 300.98 516.751 L 317.88 487.896 C 325.685 474.843 330.565 466.687 332.519 463.429 C 332.917 462.757 333.94 463.114 333.848 463.877 C 333.449 467.085 332.447 475.087 330.841 487.896 L 327.025 517.83 L 327.025 544.16 C 328.437 558.424 329.317 567.344 329.675 570.907 C 330.452 578.788 331.884 586.577 333.961 594.223 C 334.636 596.687 335.567 600.088 336.743 604.425 C 337.132 605.83 337.695 607.184 338.431 608.437 C 339.741 610.656 342.953 616.134 344.365 618.527 C 344.723 619.138 345.398 619.474 346.104 619.402 C 347.853 619.209 351.147 618.853 352.692 618.68 C 354.124 618.527 355.505 618.079 356.763 617.366 C 360.579 615.208 357.039 617.213 357.581 616.898 C 369.704 610.025 380.946 601.707 391.063 592.146 C 391.145 592.065 388.076 594.966 391.135 592.075 C 391.288 591.932 391.544 591.993 391.606 592.197 C 393.253 597.441 395.452 604.415 396.444 607.582 C 398.705 614.78 402.04 621.602 406.336 627.823 C 406.336 627.823 406.336 627.823 406.336 627.823 C 410.807 633.759 413.589 637.475 414.704 638.961 C 415.206 639.613 415.973 640 416.801 640 C 425.691 640 451.122 640 460.032 640 C 460.841 640 461.638 639.847 462.385 639.552 C 462.846 639.369 462.365 639.562 462.641 639.45 C 463.93 638.941 464.932 637.872 465.362 636.559 C 467.255 630.724 471.981 616.154 479.551 592.838 L 487.182 557.864 C 491.407 536.157 494.046 522.595 495.11 517.168 C 495.141 516.985 495.366 516.903 495.519 517.026 C 498.2 519.276 504.133 524.265 506.373 526.148 C 508.061 527.574 509.882 528.836 511.815 529.936 C 515.048 531.769 521.442 535.404 524.582 537.175 C 526.843 538.458 529.196 539.588 531.63 540.535 C 534.26 541.564 541.093 544.231 544.367 545.514 C 544.592 545.606 544.847 545.504 544.96 545.3 C 545.829 543.63 546.085 543.132 546.423 542.5 C 548.356 538.814 549.85 534.905 550.862 530.863 C 551.026 530.221 551.435 528.612 552.08 526.036 C 554.187 516.822 555.497 511.069 556.028 508.758 C 556.346 507.363 556.509 505.928 556.509 504.492 C 556.509 504.492 556.509 504.492 556.509 504.492 C 556.509 504.492 556.509 504.492 556.509 504.492 C 556.509 504.492 556.612 487.58 556.612 487.58 C 556.458 483.823 556.059 474.436 555.435 459.408 L 552.387 431.642 C 548.561 408.316 546.177 393.736 545.216 387.902 C 544.98 386.435 546.095 385.091 547.599 385.071 C 566.074 384.715 619.77 383.697 638.521 383.35 C 639.34 383.33 639.984 382.668 639.984 381.854 C 639.984 368.516 639.984 329.927 639.984 316.569 C 639.984 315.642 639.769 314.726 639.34 313.901 C 635.984 307.334 627.596 290.931 614.164 264.673 L 609.336 256.67 C 608.763 255.723 608.415 255.133 608.272 254.898 C 597.756 237.457 584.794 221.614 569.777 207.839 C 568.693 206.841 565.982 204.356 561.645 200.375 L 527.978 174.881 C 515.57 167.794 507.805 163.365 504.696 161.593 C 504.327 161.39 504.266 160.881 504.573 160.585 C 507.232 158.071 513.872 151.768 524.49 141.698 Z " fill="rgb(46,156,202)"/></g></g></g></g></svg>