<?xml version="1.0" standalone="no"?><!-- Generator: Gravit.io --><svg xmlns="http://www.w3.org/2000/svg" xmlns:xlink="http://www.w3.org/1999/xlink" style="isolation:isolate" viewBox="0 0 640 640" width="640" height="640"><defs><clipPath id="_clipPath_xYC4QdZ49FtQSI05ilIJZ8xdBWUTYmQE"><rect width="640" height="640"/></clipPath></defs><g clip-path="url(#_clipPath_xYC4QdZ49FtQSI05ilIJZ8xdBWUTYmQE)"><g id="Group" filter="url(#ynf2Fvdjq3l4wbAd14Tqr9W8MfHjwNtV)"><g id="Group"><g id="Group"><path d=" M 518.726 145.529 L 540.866 127.819 C 554.246 117.809 562.606 111.549 565.946 109.049 C 569.096 106.689 572.426 104.569 575.896 102.719 C 579.076 101.009 587.026 96.749 599.756 89.919 C 616.126 82.279 626.356 77.509 630.446 75.599 C 631.166 75.259 631.626 74.539 631.626 73.749 C 631.626 65.789 631.626 42.859 631.626 34.819 C 631.626 34.419 631.216 34.149 630.856 34.319 C 628.096 35.599 621.216 38.779 610.196 43.879 L 579.866 61.229 L 548.976 81.069 L 519.086 103.099 C 497.866 120.269 484.606 131.009 479.296 135.299 C 478.896 135.629 478.296 135.449 478.116 134.969 C 477.276 132.549 475.156 126.509 471.766 116.839 C 467.316 108.039 464.536 102.539 463.426 100.339 C 459.086 91.749 454.096 83.519 448.506 75.699 C 448.486 75.669 448.436 75.599 448.356 75.499 L 439.596 63.509 L 433.786 56.789 L 426.666 48.879 L 414.196 35.009 L 405.036 26.199 L 395.696 17.479 C 389.686 11.869 385.936 8.359 384.436 6.959 C 384.026 6.569 383.476 6.359 382.916 6.359 C 364.226 6.359 308.816 6.359 290.076 6.359 C 289.686 6.359 289.296 6.429 288.936 6.549 C 288.446 6.719 288.596 6.669 288.366 6.749 C 287.226 7.149 286.386 8.149 286.206 9.349 C 285.556 13.719 283.916 24.639 281.286 42.109 C 280.436 61.849 279.906 74.179 279.696 79.119 C 279.676 79.559 279.236 79.869 278.816 79.729 C 274.756 78.399 264.626 75.059 248.416 69.729 C 229.026 64.859 216.906 61.809 212.066 60.589 C 212.066 60.589 208.696 59.979 208.696 59.979 C 201.936 59.239 183.066 57.169 176.236 56.419 C 175.356 56.319 174.466 56.299 173.586 56.339 C 159.026 57.019 148.156 57.589 140.996 58.049 C 133.536 58.519 130.306 60.169 131.306 63.009 C 134.336 70.029 136.236 74.429 136.996 76.179 C 137.176 76.599 137.266 77.049 137.266 77.509 C 137.266 80.489 137.266 88.209 137.266 91.059 C 137.266 91.939 137.506 92.799 137.946 93.559 C 141.246 99.139 150.806 115.339 154.196 121.069 C 154.286 121.239 154.166 121.449 153.976 121.449 C 148.776 121.449 153.356 121.449 153.096 121.449 C 136.366 121.449 119.676 123.039 103.256 126.199 C 102.866 126.279 101.906 126.459 100.366 126.759 L 75.016 131.719 L 64.956 134.179 L 51.556 138.299 C 43.536 140.949 38.536 142.599 36.526 143.269 C 28.416 145.949 20.606 149.479 13.226 153.789 C 11.566 154.759 10.546 155.359 7.106 157.369 C 5.956 158.039 5.646 159.569 6.446 160.639 C 7.946 162.629 11.686 167.589 17.676 175.529 C 21.126 179.249 23.276 181.569 24.136 182.499 C 29.966 188.779 36.286 194.579 43.036 199.859 C 49.426 204.859 65.946 217.779 74.206 224.239 C 74.636 224.569 74.656 225.199 74.266 225.559 C 72.776 226.929 69.046 230.359 63.086 235.849 C 61.856 237.119 61.086 237.909 60.776 238.229 C 56.386 242.749 52.786 247.979 50.126 253.689 C 49.826 254.339 50.896 252.049 50.076 253.799 C 49.106 255.889 48.346 258.069 47.806 260.309 C 47.436 261.869 46.916 264.049 46.486 265.819 C 46.166 267.149 46.796 268.519 48.006 269.149 C 52.806 271.619 58.356 274.489 61.466 276.089 C 68.486 279.709 75.916 282.479 83.596 284.329 C 85.386 284.759 89.856 285.839 97.006 287.559 L 123.476 291.809 L 151.436 293.229 C 169.746 293.229 181.186 293.229 185.766 293.229 C 186.286 293.229 186.426 293.929 185.956 294.139 C 182.796 295.529 174.886 298.999 162.246 304.559 L 140.996 316.959 L 119.746 330.059 L 93.656 347.769 C 88.716 351.619 85.636 354.019 84.396 354.979 C 75.426 361.969 66.956 369.599 59.066 377.799 C 56.666 380.289 53.196 383.899 48.766 388.499 C 47.676 389.639 47.056 391.159 47.056 392.739 C 47.056 393.449 47.056 393.339 47.056 394.109 C 47.056 395.499 47.646 396.829 48.676 397.769 C 51.936 400.729 52.866 401.579 54.316 402.899 C 61.386 409.349 69.056 415.119 77.196 420.149 C 79.386 421.499 84.876 424.879 93.656 430.299 C 103.536 436.039 109.706 439.619 112.176 441.049 C 112.966 441.509 113.076 442.609 112.396 443.219 C 110.286 445.099 111.316 444.189 110.696 444.739 C 104.816 449.979 99.386 455.709 94.476 461.879 C 92.536 464.329 87.656 470.449 79.866 480.239 C 74.266 487.649 70.756 492.279 69.356 494.129 C 62.566 503.119 56.856 512.879 52.346 523.209 C 49.576 529.569 51.366 525.449 49.426 529.899 C 42.156 546.559 36.846 564.009 33.606 581.889 C 33.466 582.669 34.356 577.739 33.326 583.429 C 33.036 584.999 32.976 586.589 33.136 588.169 C 33.316 589.889 33.666 593.359 33.856 595.249 C 33.956 596.169 34.586 596.949 35.466 597.229 C 36.076 597.419 36.556 597.569 37.196 597.779 C 38.046 598.049 38.946 598.169 39.846 598.129 C 46.276 597.859 64.086 597.099 70.486 596.829 C 71.516 596.789 72.526 596.599 73.506 596.269 C 80.366 593.959 88.576 591.199 92.716 589.809 C 102.756 586.429 112.376 581.919 121.386 576.369 C 122.266 575.829 124.446 574.479 127.946 572.329 C 135.456 567.699 140.146 564.799 142.026 563.649 C 153.296 556.699 163.956 548.819 173.916 540.089 C 176.736 537.609 181.786 533.179 187.486 528.179 C 187.746 527.949 188.146 528.069 188.246 528.389 C 190.216 534.629 192.496 541.829 193.606 545.359 C 196.596 554.829 200.286 564.059 204.646 572.979 C 205.416 574.539 207.336 578.459 210.396 584.729 C 216.136 593.479 219.726 598.959 221.156 601.149 C 222.116 602.609 223.756 603.499 225.516 603.499 C 225.846 603.499 224.826 603.499 225.356 603.499 C 226.526 603.499 227.666 603.089 228.566 602.339 C 232.536 599.029 236.486 595.739 238.806 593.799 C 245.206 588.469 251.086 582.559 256.376 576.139 C 258.196 573.929 262.756 568.409 270.036 559.579 L 300.236 513.889 L 316.756 485.549 C 324.386 472.729 329.156 464.719 331.066 461.519 C 331.456 460.859 332.456 461.209 332.366 461.959 C 331.976 465.109 330.996 472.969 329.426 485.549 L 325.696 514.949 L 325.696 540.809 C 327.076 554.819 327.936 563.579 328.286 567.079 C 329.046 574.819 330.446 582.469 332.476 589.979 C 333.136 592.399 334.046 595.739 335.196 599.999 C 335.576 601.379 336.126 602.709 336.846 603.939 C 338.126 606.119 341.266 611.499 342.646 613.849 C 342.996 614.449 343.656 614.779 344.346 614.709 C 346.056 614.519 349.276 614.169 350.786 613.999 C 352.186 613.849 353.536 613.409 354.766 612.709 C 358.496 610.589 355.036 612.559 355.566 612.249 C 367.416 605.499 378.406 597.329 388.296 587.939 C 388.376 587.859 385.376 590.709 388.366 587.869 C 388.516 587.729 388.766 587.789 388.826 587.989 C 390.436 593.139 392.586 599.989 393.556 603.099 C 395.766 610.169 399.026 616.869 403.226 622.979 C 403.226 622.979 403.226 622.979 403.226 622.979 C 407.596 628.809 410.316 632.459 411.406 633.919 C 411.896 634.559 412.646 634.939 413.456 634.939 C 422.146 634.939 447.006 634.939 455.716 634.939 C 456.506 634.939 457.286 634.789 458.016 634.499 C 458.466 634.319 457.996 634.509 458.266 634.399 C 459.526 633.899 460.506 632.849 460.926 631.559 C 462.776 625.829 467.396 611.519 474.796 588.619 L 482.256 554.269 C 486.386 532.949 488.966 519.629 490.006 514.299 C 490.036 514.119 490.256 514.039 490.406 514.159 C 493.026 516.369 498.826 521.269 501.016 523.119 C 502.666 524.519 504.446 525.759 506.336 526.839 C 509.496 528.639 515.746 532.209 518.816 533.949 C 521.026 535.209 523.326 536.319 525.706 537.249 C 528.276 538.259 534.956 540.879 538.156 542.139 C 538.376 542.229 538.626 542.129 538.736 541.929 C 539.586 540.289 539.836 539.799 540.166 539.179 C 542.056 535.559 543.516 531.719 544.506 527.749 C 544.666 527.119 545.066 525.539 545.696 523.009 C 547.756 513.959 549.036 508.309 549.556 506.039 C 549.866 504.669 550.026 503.259 550.026 501.849 C 550.026 501.849 550.026 501.849 550.026 501.849 C 550.026 501.849 550.026 501.849 550.026 501.849 C 550.026 501.849 550.126 485.239 550.126 485.239 C 549.976 481.549 549.586 472.329 548.976 457.569 L 545.996 430.299 C 542.256 407.389 539.926 393.069 538.986 387.339 C 538.756 385.899 539.846 384.579 541.316 384.559 C 559.376 384.209 611.866 383.209 630.196 382.869 C 630.996 382.849 631.626 382.199 631.626 381.399 C 631.626 368.299 631.626 330.399 631.626 317.279 C 631.626 316.369 631.416 315.469 630.996 314.659 C 627.716 308.209 619.516 292.099 606.386 266.309 L 601.666 258.449 C 601.106 257.519 600.766 256.939 600.626 256.709 C 590.346 239.579 577.676 224.019 562.996 210.489 C 561.936 209.509 559.286 207.069 555.046 203.159 L 522.136 178.119 C 510.006 171.159 502.416 166.809 499.376 165.069 C 499.016 164.869 498.956 164.369 499.256 164.079 C 501.856 161.609 508.346 155.419 518.726 145.529 Z " fill="rgb(46,156,202)"/></g><g id="Group"><g id="f2y5E4behu"><g transform="matrix(1,0.003,-0.003,1,172.378,282.463)"><text transform="matrix(1,0,0,1,0,94.176)" style="font-family:&quot;Marck Script&quot;;font-weight:400;font-size:109px;font-style:normal;fill:#000000;stroke:none;">Bap ist</text></g></g><g id="Group"><g id="Group"><path d=" M 450.06 172.523 C 450.06 214.503 416.44 248.583 375.03 248.583 C 333.62 248.583 300 214.503 300 172.523 C 300 130.543 333.62 96.463 375.03 96.463 C 416.44 96.463 450.06 130.543 450.06 172.523 Z " fill="rgb(170,171,184)"/></g><g id="Group"/><g id="Group"><g id="Group"/><g id="Group"><path d=" M 384.76 14.463 L 381.61 166.093 L 475.28 166.093 L 463.9 184.493 L 381.61 183.023 L 382.938 274.9 L 384.76 400.903 L 365.15 412.183 L 367.57 180.323 L 271 178.603 L 281.65 166.093 L 368.78 167.323 L 362 25.753 L 384.76 14.463 Z " fill="rgb(0,0,0)"/></g></g></g><g id="cVCVEHxkL"><g id="Group"><g transform="matrix(1,0.003,-0.003,1,47.75,-422)"><text transform="matrix(1,0,0,1,0.696,100.224)" style="font-family:&quot;Marck Script&quot;;font-weight:400;font-size:116px;font-style:normal;fill:#FFFFFF;stroke:none;">Firs</text></g></g><g transform="matrix(1,0.003,-0.003,1,186.347,202.463)"><text transform="matrix(1,0,0,1,0.6,86.4)" style="font-family:&quot;Marck Script&quot;;font-weight:400;font-size:100px;font-style:normal;fill:#000000;stroke:none;">Firs</text></g></g></g><g id="Group"><g id="aDH05FHlS"><g transform="matrix(1,0.003,-0.003,1,146.378,401.493)"><text transform="matrix(1,0,0,1,0,40.616)" style="font-family:&quot;Open Sans&quot;;font-weight:700;font-size:38px;font-style:normal;fill:#000000;stroke:none;">Church of Macomb</text></g></g><g id="Group"><g id="Group"><line x1="456.685" y1="406.649" x2="135.845" y2="406.649"/></g></g><g id="Group"><g id="Group"><line x1="456.685" y1="450.449" x2="135.845" y2="450.449"/></g></g></g></g></g><defs><filter id="ynf2Fvdjq3l4wbAd14Tqr9W8MfHjwNtV" x="-200%" y="-200%" width="400%" height="400%"><feOffset xmlns="http://www.w3.org/2000/svg" in="SourceAlpha" result="offOut" dx="2" dy="0"/><feGaussianBlur xmlns="http://www.w3.org/2000/svg" in="offOut" result="blurOut" stdDeviation="2.5"/><feComponentTransfer xmlns="http://www.w3.org/2000/svg" in="blurOut" result="opacOut"><feFuncA xmlns="http://www.w3.org/2000/svg" type="table" tableValues="0 0.5"/></feComponentTransfer><feBlend xmlns="http://www.w3.org/2000/svg" in="SourceGraphic" in2="opacOut" mode="normal"/></filter></defs></g></svg>